<?xml version="1.0" encoding="utf-8"?>
<!-- Generator: Adobe Illustrator 23.0.0, SVG Export Plug-In . SVG Version: 6.00 Build 0)  -->
<svg version="1.1" xmlns="http://www.w3.org/2000/svg" xmlns:xlink="http://www.w3.org/1999/xlink" x="0px" y="0px"
	 viewBox="0 0 227 63.4" style="enable-background:new 0 0 227 63.4;" xml:space="preserve">
<style type="text/css">
	.st0{fill:url(#SVGID_1_);}
	.st1{fill:url(#SVGID_2_);}
	.st2{fill:url(#SVGID_3_);}
	.st3{fill:url(#SVGID_4_);}
	.st4{fill:url(#SVGID_5_);}
</style>
<g id="BACKGROUND">
</g>
<g id="OBJECTS">
	<g>
		<linearGradient id="SVGID_1_" gradientUnits="userSpaceOnUse" x1="-2.9072" y1="41.3084" x2="224.3268" y2="36.7127">
			<stop  offset="0" style="stop-color:#E7077B"/>
			<stop  offset="1" style="stop-color:#00ACD8"/>
		</linearGradient>
		<path class="st0" d="M20.3,18.3c2.4,0,4.7,0.3,7,1c2.3,0.7,4.3,1.7,6,3c1.7-1.2,3.7-2.1,5.9-2.9c2.2-0.8,4.8-1.1,7.9-1.1
			c2.2,0,4.4,0.3,6.5,0.9c2.1,0.6,4,1.5,5.7,2.7c1.7,1.2,3,2.9,4,5c1,2.1,1.5,4.6,1.5,7.5v27.4c-0.6,0.2-1.5,0.3-2.7,0.5
			c-1.2,0.2-2.5,0.3-3.9,0.3c-1.3,0-2.4-0.1-3.4-0.3c-1-0.2-1.9-0.5-2.6-1c-0.7-0.5-1.2-1.2-1.6-2.1c-0.4-0.9-0.6-2.1-0.6-3.5V34.8
			c0-1.7-0.5-3-1.5-3.8c-1-0.8-2.3-1.2-4-1.2c-0.8,0-1.7,0.2-2.6,0.6s-1.6,0.8-2.1,1.2c0.1,0.2,0.1,0.4,0.1,0.7s0,0.4,0,0.6v29
			c-0.6,0.2-1.6,0.3-2.8,0.5c-1.3,0.2-2.5,0.3-3.8,0.3c-1.3,0-2.4-0.1-3.4-0.3c-1-0.2-1.9-0.5-2.6-1c-0.7-0.5-1.2-1.2-1.6-2.1
			c-0.4-0.9-0.6-2.1-0.6-3.5V34.8c0-1.7-0.5-3-1.6-3.8c-1.1-0.8-2.4-1.2-3.9-1.2c-1,0-1.9,0.2-2.7,0.5c-0.8,0.3-1.4,0.6-1.9,0.9
			v30.6c-0.6,0.2-1.5,0.3-2.7,0.5c-1.3,0.2-2.5,0.3-3.9,0.3c-1.3,0-2.4-0.1-3.4-0.3c-1-0.2-1.9-0.5-2.6-1c-0.7-0.5-1.2-1.2-1.6-2.1
			C0.2,58.3,0,57.1,0,55.7V29.4c0-1.6,0.3-2.8,1-3.7c0.7-0.9,1.6-1.8,2.7-2.6c2-1.4,4.4-2.5,7.4-3.4C14,18.7,17.1,18.3,20.3,18.3z"
			/>
		<linearGradient id="SVGID_2_" gradientUnits="userSpaceOnUse" x1="-2.8688" y1="43.2073" x2="224.3652" y2="38.6115">
			<stop  offset="0" style="stop-color:#E7077B"/>
			<stop  offset="1" style="stop-color:#00ACD8"/>
		</linearGradient>
		<path class="st1" d="M73.7,20.2c0.6-0.2,1.5-0.3,2.7-0.5c1.2-0.2,2.5-0.3,3.9-0.3c1.3,0,2.4,0.1,3.4,0.3c1,0.2,1.9,0.5,2.6,1
			c0.7,0.5,1.2,1.2,1.6,2.1c0.4,0.9,0.6,2.1,0.6,3.5v18.7c0,2.4,0.6,4.1,1.7,5.1c1.2,1,2.8,1.5,5.1,1.5c1.3,0,2.4-0.1,3.3-0.3
			c0.8-0.2,1.5-0.5,2-0.7V20.2c0.6-0.2,1.5-0.3,2.7-0.5c1.2-0.2,2.5-0.3,3.9-0.3c1.3,0,2.4,0.1,3.4,0.3c1,0.2,1.9,0.5,2.6,1
			c0.7,0.5,1.2,1.2,1.6,2.1c0.4,0.9,0.6,2.1,0.6,3.5v26.5c0,2.9-1.2,5.1-3.7,6.5c-2,1.3-4.5,2.2-7.3,2.9c-2.8,0.7-5.9,1-9.2,1
			c-3.1,0-6-0.4-8.7-1c-2.6-0.7-4.9-1.8-6.8-3.2c-1.9-1.4-3.4-3.3-4.4-5.6c-1-2.3-1.6-5.1-1.6-8.3V20.2z"/>
		<linearGradient id="SVGID_3_" gradientUnits="userSpaceOnUse" x1="-2.8583" y1="43.7262" x2="224.3757" y2="39.1304">
			<stop  offset="0" style="stop-color:#E7077B"/>
			<stop  offset="1" style="stop-color:#00ACD8"/>
		</linearGradient>
		<path class="st2" d="M160.1,49.3c0,4.4-1.7,7.9-5,10.4c-3.3,2.5-8.2,3.7-14.6,3.7c-2.4,0-4.7-0.2-6.8-0.5
			c-2.1-0.3-3.9-0.9-5.4-1.6c-1.5-0.7-2.6-1.6-3.5-2.7c-0.8-1.1-1.3-2.4-1.3-3.9c0-1.4,0.3-2.6,0.9-3.5c0.6-1,1.3-1.8,2.1-2.4
			c1.7,0.9,3.6,1.8,5.8,2.5c2.2,0.7,4.7,1.1,7.5,1.1c1.8,0,3.2-0.3,4.1-0.8c1-0.5,1.4-1.2,1.4-2.1c0-0.8-0.3-1.5-1-1.9
			c-0.7-0.5-1.9-0.8-3.5-1.1l-2.6-0.5c-5.1-1-8.8-2.5-11.3-4.7c-2.5-2.1-3.7-5.2-3.7-9.1c0-2.1,0.5-4.1,1.4-5.8s2.2-3.2,3.9-4.4
			c1.7-1.2,3.7-2.1,6.1-2.7c2.4-0.6,5-1,7.8-1c2.1,0,4.2,0.2,6.1,0.5c1.9,0.3,3.5,0.8,4.9,1.4c1.4,0.6,2.5,1.5,3.3,2.5
			c0.8,1,1.2,2.2,1.2,3.6c0,1.3-0.2,2.5-0.7,3.4s-1.1,1.8-1.9,2.4c-0.5-0.3-1.2-0.6-2.1-0.9c-0.9-0.3-1.9-0.6-3-0.9
			c-1.1-0.3-2.2-0.5-3.4-0.7c-1.1-0.2-2.2-0.3-3.1-0.3c-1.9,0-3.4,0.2-4.4,0.7c-1,0.4-1.6,1.1-1.6,2c0,0.6,0.3,1.2,0.9,1.6
			c0.6,0.4,1.7,0.8,3.3,1.1l2.7,0.6c5.6,1.3,9.5,3,11.9,5.3C158.9,42.9,160.1,45.8,160.1,49.3z"/>
		<linearGradient id="SVGID_4_" gradientUnits="userSpaceOnUse" x1="-3.0364" y1="34.9207" x2="224.1976" y2="30.3249">
			<stop  offset="0" style="stop-color:#E7077B"/>
			<stop  offset="1" style="stop-color:#00ACD8"/>
		</linearGradient>
		<path class="st3" d="M166.9,7.8c0-2.2,0.7-4.1,2.2-5.6c1.5-1.5,3.4-2.3,5.9-2.3c2.4,0,4.4,0.8,5.9,2.3s2.2,3.4,2.2,5.6
			c0,2.2-0.7,4.1-2.2,5.6s-3.4,2.3-5.9,2.3c-2.4,0-4.4-0.8-5.9-2.3C167.6,11.9,166.9,10.1,166.9,7.8z M182.4,61.8
			c-0.6,0.1-1.6,0.3-2.8,0.5c-1.2,0.2-2.5,0.3-3.8,0.3c-1.3,0-2.4-0.1-3.4-0.3c-1-0.2-1.9-0.5-2.6-1c-0.7-0.5-1.2-1.2-1.6-2.1
			c-0.4-0.9-0.6-2.1-0.6-3.5V20.2c0.6-0.1,1.6-0.3,2.8-0.5c1.2-0.2,2.5-0.3,3.8-0.3c1.3,0,2.4,0.1,3.4,0.3c1,0.2,1.9,0.5,2.6,1
			c0.7,0.5,1.2,1.2,1.6,2.1c0.4,0.9,0.6,2.1,0.6,3.5V61.8z"/>
		<linearGradient id="SVGID_5_" gradientUnits="userSpaceOnUse" x1="-2.8297" y1="45.1434" x2="224.4044" y2="40.5476">
			<stop  offset="0" style="stop-color:#E7077B"/>
			<stop  offset="1" style="stop-color:#00ACD8"/>
		</linearGradient>
		<path class="st4" d="M215.6,30c-1.5,0-2.8,0.2-4.1,0.7c-1.3,0.5-2.4,1.1-3.4,2c-1,0.9-1.7,2-2.3,3.4c-0.6,1.3-0.9,2.9-0.9,4.7
			c0,3.6,1,6.3,3.1,8.1c2.1,1.8,4.6,2.7,7.5,2.7c1.7,0,3.3-0.2,4.5-0.6c1.3-0.4,2.4-0.8,3.4-1.3c1.2,0.8,2,1.7,2.6,2.7
			c0.6,1,0.9,2.1,0.9,3.4c0,2.4-1.1,4.2-3.4,5.5s-5.4,2-9.4,2c-3.7,0-7-0.5-9.9-1.6c-3-1.1-5.5-2.6-7.6-4.5c-2.1-1.9-3.8-4.3-4.9-7
			c-1.2-2.7-1.7-5.7-1.7-9.1c0-3.8,0.6-7.2,1.9-10.1c1.2-2.9,2.9-5.2,5.1-7.1c2.1-1.9,4.6-3.3,7.4-4.2s5.8-1.4,8.9-1.4
			c4.2,0,7.4,0.8,9.7,2.3s3.4,3.5,3.4,5.8c0,1.1-0.3,2.1-0.8,3.1c-0.5,1-1.1,1.8-1.8,2.5c-1-0.5-2.2-0.9-3.6-1.4
			C218.8,30.2,217.3,30,215.6,30z"/>
	</g>
</g>
<g id="DESIGNED_BY_FREEPIK">
</g>
</svg>
